# xmcd
#
# Track frame offsets:
#	150
#	21965
#	36504
#	50908
#	64593
#	81650
#	97090
#	120584
#	134500
#	152812
#	170559
#	189308
#
# Disc length: 2743 seconds
#
# Revision: 0
# Processed by: cddbd v1.5.2PL0 Copyright (c) Steve Scherf et al.
# Submitted via: EasyCDDAExtractor 2010.4.0.0
#
DISCID=b00ab50c
DTITLE=Quique González - Delantera Mítica
DYEAR=2013
DGENRE=
TTITLE0=Tenía Que Decírtelo
TTITLE1=La Fábrica
TTITLE2=Dallas - Memphis
TTITLE3=¿Dónde Está El Dinero
TTITLE4=Parece Mentira
TTITLE5=Las Chicas Son Magníficas
TTITLE6=Me lo agradecerás
TTITLE7=Viejos Capos
TTITLE8=No Encuentro a Samuel
TTITLE9=No Hagas Planes
TTITLE10=Delantera Mítica
TTITLE11=¿Es Tu Amor En Vano
EXTD=
EXTT0=
EXTT1=
EXTT2=
EXTT3=
EXTT4=
EXTT5=
EXTT6=
EXTT7=
EXTT8=
EXTT9=
EXTT10=
EXTT11=
PLAYORDER=
